<svg xmlns="http://www.w3.org/2000/svg" viewBox="0 0 400 320">
  <defs>
    <filter id="sh"><feDropShadow dx="0" dy="5" stdDeviation="9" flood-color="#000" flood-opacity="0.18"/></filter>
  </defs>
  <g filter="url(#sh)">
    <path id="product-body" d="M200 28 L118 164 L282 164 Z" fill="#f2f2f2" stroke="#ddd" stroke-width="1"/>
    <path d="M200 28 L282 164 L320 152 L290 82 Z" id="product-sleeve-r" fill="#ffffff" stroke="#ddd" stroke-width="1"/>
    <path d="M200 28 L118 164 L80 152 L110 82 Z" id="product-sleeve-l" fill="#ebebeb" stroke="#ddd" stroke-width="1"/>
    <ellipse cx="200" cy="164" rx="122" ry="16" id="product-collar" fill="#d8d8d8" stroke="#c4c4c4" stroke-width="1"/>
    <path id="product-brim" d="M78 170 Q200 228 322 170 Q312 212 200 226 Q88 212 78 170 Z" fill="#e2e2e2" stroke="#ccc" stroke-width="1"/>
    <path d="M80 175 Q200 226 320 175 Q312 208 200 220 Q88 208 80 175 Z" fill="#c8c8c8" opacity="0.45"/>
    <circle cx="200" cy="28" r="9" fill="#ccc" stroke="#bbb" stroke-width="1"/>
    <line x1="200" y1="28" x2="200" y2="164" stroke="rgba(0,0,0,0.07)" stroke-width="1.5" stroke-dasharray="4,4"/>
    <line x1="110" y1="82" x2="118" y2="162" stroke="rgba(0,0,0,0.05)" stroke-width="1" stroke-dasharray="3,3"/>
    <line x1="290" y1="82" x2="282" y2="162" stroke="rgba(0,0,0,0.05)" stroke-width="1" stroke-dasharray="3,3"/>
  </g>
</svg>