<svg xmlns="http://www.w3.org/2000/svg" viewBox="0 0 400 480">
  <defs>
    <filter id="sh"><feDropShadow dx="0" dy="4" stdDeviation="7" flood-color="#000" flood-opacity="0.15"/></filter>
  </defs>
  <g filter="url(#sh)">
    <path id="product-sleeve-l" d="M80 42 L18 108 L58 128 L108 72 Z" fill="#ffffff" stroke="#ddd" stroke-width="1"/>
    <path id="product-sleeve-r" d="M320 42 L382 108 L342 128 L292 72 Z" fill="#ffffff" stroke="#ddd" stroke-width="1"/>
    <path id="product-body" d="M142 94 L80 42 L18 108 L58 128 L58 432 L342 432 L342 128 L382 108 L320 42 L258 94 C240 112 222 118 200 118 C178 118 160 112 142 94 Z" fill="#ffffff" stroke="#e0e0e0" stroke-width="1.5"/>
    <path id="product-hood" d="M142 94 C132 72 128 46 138 26 C154 8 176 4 200 4 C224 4 246 8 262 26 C272 46 268 72 258 94 C240 112 222 118 200 118 C178 118 160 112 142 94 Z" fill="#f2f2f2" stroke="#d8d8d8" stroke-width="1.5"/>
    <ellipse cx="200" cy="76" rx="30" ry="40" fill="#111" opacity="0.82"/>
    <line x1="187" y1="56" x2="180" y2="118" stroke="rgba(0,0,0,0.18)" stroke-width="2.5" stroke-linecap="round"/>
    <line x1="213" y1="56" x2="220" y2="118" stroke="rgba(0,0,0,0.18)" stroke-width="2.5" stroke-linecap="round"/>
    <rect x="132" y="316" width="136" height="68" rx="5" fill="rgba(0,0,0,0.055)" stroke="rgba(0,0,0,0.07)" stroke-width="1"/>
    <line x1="200" y1="316" x2="200" y2="384" stroke="rgba(0,0,0,0.06)" stroke-width="1"/>
  </g>
</svg>