<svg xmlns="http://www.w3.org/2000/svg" viewBox="0 0 400 480">
  <defs>
    <filter id="sh"><feDropShadow dx="0" dy="4" stdDeviation="7" flood-color="#000" flood-opacity="0.15"/></filter>
  </defs>
  <g filter="url(#sh)">
    <path id="product-sleeve-l" d="M74 36 L12 102 L52 124 L96 64 Z" fill="#ffffff" stroke="#ddd" stroke-width="1"/>
    <path id="product-sleeve-r" d="M326 36 L388 102 L348 124 L304 64 Z" fill="#ffffff" stroke="#ddd" stroke-width="1"/>
    <path id="product-body" d="M132 54 L74 36 L12 102 L52 124 L52 422 L348 422 L348 124 L388 102 L326 36 L268 54 C250 66 228 72 200 72 C172 72 150 66 132 54 Z" fill="#ffffff" stroke="#ddd" stroke-width="1.5"/>
    <path id="product-collar" d="M132 54 L200 108 L268 54 C250 42 228 38 200 38 C172 38 150 42 132 54 Z" fill="#e8e8e8" stroke="#ccc" stroke-width="1"/>
    <path d="M138 57 L200 106 L262 57" fill="none" stroke="rgba(0,0,0,0.10)" stroke-width="2.5"/>
    <rect x="52" y="410" width="296" height="12" rx="2" fill="rgba(0,0,0,0.055)"/>
    <path d="M12 100 L52 122 L55 128 L13 106 Z" fill="rgba(0,0,0,0.07)"/>
    <path d="M388 100 L348 122 L345 128 L387 106 Z" fill="rgba(0,0,0,0.07)"/>
  </g>
</svg>