<svg xmlns="http://www.w3.org/2000/svg" viewBox="0 0 400 480">
  <defs>
    <filter id="sh"><feDropShadow dx="0" dy="4" stdDeviation="7" flood-color="#000" flood-opacity="0.15"/></filter>
  </defs>
  <g filter="url(#sh)">
    <path id="product-sleeve-l" d="M78 40 L16 104 L56 124 L98 68 Z" fill="#ffffff" stroke="#ddd" stroke-width="1"/>
    <path id="product-sleeve-r" d="M322 40 L384 104 L344 124 L302 68 Z" fill="#ffffff" stroke="#ddd" stroke-width="1"/>
    <path id="product-body" d="M132 56 L78 40 L16 104 L56 124 L56 430 L344 430 L344 124 L384 104 L322 40 L268 56 C250 68 232 74 200 74 C168 74 150 68 132 56 Z" fill="#ffffff" stroke="#e0e0e0" stroke-width="1.5"/>
    <path id="product-collar" d="M152 56 C152 38 248 38 248 56 L248 76 C224 86 176 86 152 76 Z" fill="#e6e6e6" stroke="#ccc" stroke-width="1"/>
    <path d="M152 56 L200 104 L152 76 Z" fill="#d8d8d8"/>
    <path d="M248 56 L200 104 L248 76 Z" fill="#e0e0e0"/>
    <rect x="196" y="76" width="8" height="58" rx="2" fill="rgba(0,0,0,0.07)"/>
    <circle cx="200" cy="87" r="3.5" fill="#c0c0c0"/>
    <circle cx="200" cy="102" r="3.5" fill="#c0c0c0"/>
    <circle cx="200" cy="117" r="3.5" fill="#c0c0c0"/>
  </g>
</svg>