<svg xmlns="http://www.w3.org/2000/svg" viewBox="0 0 128 128">
  <!-- Bag body -->
  <path id="product-body" fill="#f5f0e8" stroke="#c8c0b0" stroke-width="1"
    d="M99,43H82V24a9,9,0,0,0-9-9H55a9,9,0,0,0-9,9V43H31a5,5,0,0,0-5,5v56
       a9,9,0,0,0,9,9H95a9,9,0,0,0,9-9V48A5,5,0,0,0,99,43Z
       M48,24a7,7,0,0,1,7-7H73a7,7,0,0,1,7,7V49H76V27a7,7,0,0,0-7-7H59
       a7,7,0,0,0-7,7V49H48V24Z
       M74,43H54V27a5,5,0,0,1,5-5H69a5,5,0,0,1,5,5Z
       M102,104a7,7,0,0,1-7,7H35a7,7,0,0,1-7-7V48a3,3,0,0,1,3-3H46v4
       a2,2,0,0,0,2,2h4a2,2,0,0,0,2-2V45H74v4a2,2,0,0,0,2,2h4
       a2,2,0,0,0,2-2V45H99a3,3,0,0,1,3,3Z"/>
</svg>