<svg xmlns="http://www.w3.org/2000/svg" viewBox="0 0 400 460">
  <defs>
    <filter id="sh"><feDropShadow dx="0" dy="5" stdDeviation="9" flood-color="#000" flood-opacity="0.16"/></filter>
  </defs>
  <g filter="url(#sh)">
    <rect id="product-body" x="58" y="118" width="284" height="304" rx="6" fill="#f5f0e8" stroke="#d8d0c0" stroke-width="2"/>
    <rect id="product-collar" x="58" y="118" width="284" height="22" rx="6" fill="#e8e0d0" stroke="#d0c8b8" stroke-width="1"/>
    <path id="product-sleeve-l" d="M108 118 Q108 38 158 38 Q194 38 194 68 Q194 88 184 98 Q172 108 162 108 Q152 108 148 94 Q143 78 150 66 Q158 50 158 42" fill="none" stroke="#c8c0b0" stroke-width="13" stroke-linecap="round"/>
    <path d="M108 118 Q108 38 158 38 Q194 38 194 68 Q194 88 184 98 Q172 108 162 108 Q152 108 148 94 Q143 78 150 66 Q158 50 158 42" fill="none" stroke="#ddd8cc" stroke-width="8" stroke-linecap="round"/>
    <path id="product-sleeve-r" d="M292 118 Q292 38 242 38 Q206 38 206 68 Q206 88 216 98 Q228 108 238 108 Q248 108 252 94 Q257 78 250 66 Q242 50 242 42" fill="none" stroke="#c8c0b0" stroke-width="13" stroke-linecap="round"/>
    <path d="M292 118 Q292 38 242 38 Q206 38 206 68 Q206 88 216 98 Q228 108 238 108 Q248 108 252 94 Q257 78 250 66 Q242 50 242 42" fill="none" stroke="#ddd8cc" stroke-width="8" stroke-linecap="round"/>
    <rect x="58" y="392" width="284" height="30" rx="6" fill="rgba(0,0,0,0.05)"/>
    <line x1="200" y1="118" x2="200" y2="422" stroke="rgba(0,0,0,0.04)" stroke-width="1.5"/>
  </g>
</svg>